<svg width="620" height="409" viewBox="0 0 620 409" fill="none" xmlns="http://www.w3.org/2000/svg">
<path fill-rule="evenodd" clip-rule="evenodd" d="M290.783 137.353C290.921 135.379 291.516 116.961 292.567 82.0972C292.83 73.3711 286.785 65.7175 278.235 63.9514C277.662 63.833 277.376 63.7738 277.376 63.7738C267.056 63.0522 257.872 70.2738 256.139 80.4718L247.291 132.532" fill="white"/>
<path d="M277.475 64.1741L278.307 64.346C286.656 66.0707 292.559 73.5449 292.302 82.0665C291.252 116.906 290.657 135.341 290.52 137.306C290.504 137.538 290.679 137.739 290.911 137.756C291.143 137.772 291.344 137.597 291.36 137.365C291.499 135.382 292.093 116.979 293.145 82.0919C293.414 73.1613 287.228 65.3283 278.478 63.5208L277.618 63.3432L277.562 63.3355C267.027 62.5988 257.65 69.9716 255.881 80.3832L247.033 132.443C246.994 132.673 247.148 132.89 247.378 132.929C247.607 132.968 247.825 132.814 247.864 132.584L256.711 80.5244C258.407 70.5492 267.384 63.4827 277.475 64.1741Z" fill="#F56843"/>
<path fill-rule="evenodd" clip-rule="evenodd" d="M297.645 132.771L302.165 97.6282C302.601 94.2449 300.211 91.1495 296.827 90.7143C296.566 90.6807 296.303 90.6638 296.039 90.6638C291.851 90.6638 288.138 93.3572 286.837 97.3385L275.255 132.795L297.645 132.771Z" fill="white"/>
<path d="M298.008 132.935C298.22 132.935 298.399 132.778 298.426 132.568L302.946 97.4245C303.411 93.8104 300.858 90.5038 297.244 90.0389C296.965 90.003 296.683 89.985 296.402 89.985C292.031 89.985 288.156 92.7956 286.799 96.9502L275.217 132.406C275.128 132.679 275.331 132.958 275.618 132.958L298.008 132.935ZM297.637 132.093L276.198 132.115L287.6 97.2118C288.844 93.4038 292.396 90.8276 296.402 90.8276C296.647 90.8276 296.893 90.8433 297.136 90.8746C300.289 91.2801 302.516 94.1645 302.11 97.317L297.637 132.093Z" fill="#F56843"/>
<path fill-rule="evenodd" clip-rule="evenodd" d="M186.218 219.022L229.12 205.038C233.982 203.453 237.529 199.253 238.278 194.194L247.448 132.233H297.163L288.367 210.96C286.817 224.827 279.347 237.347 267.88 245.298L219.08 279.129L186.218 219.022Z" fill="#FFD1D1"/>
<path fill-rule="evenodd" clip-rule="evenodd" d="M289.298 203.855C279.374 209.286 272.165 215.465 267.671 222.393C263.177 229.321 259.339 239.713 256.156 253.57C258.904 251.565 261.245 249.88 263.177 248.514C271.09 242.922 277.172 237.835 280.872 231.943C285.928 223.891 288.737 214.528 289.298 203.855Z" fill="#FFAFAF"/>
<path d="M235.298 200.256C235.302 200.25 235.306 200.245 235.309 200.239C235.32 200.224 235.332 200.21 235.344 200.197C236.698 198.454 237.614 196.365 237.95 194.097L247.111 132.195C247.142 131.988 247.319 131.835 247.528 131.835H297.242C297.494 131.835 297.689 132.053 297.661 132.303L293.841 166.494C293.906 166.576 293.941 166.682 293.931 166.795C293.92 166.914 293.861 167.017 293.775 167.086L288.87 210.982C287.304 224.998 279.742 237.649 268.138 245.665L219.601 279.195C219.445 279.302 219.237 279.293 219.091 279.172C212.412 273.6 206.853 266.534 202.416 257.977C197.99 249.441 193.02 236.219 187.501 218.304C187.433 218.083 187.555 217.849 187.776 217.778L228.999 204.628C231.539 203.818 233.713 202.272 235.298 200.256ZM201.62 214.246L188.429 218.454C193.885 236.123 198.798 249.17 203.164 257.589C207.496 265.944 212.904 272.854 219.386 278.319L231.755 269.774L201.62 214.246ZM202.437 213.986L232.453 269.293L267.659 244.972C279.063 237.094 286.494 224.662 288.033 210.888L292.922 167.127L243.479 162.683C243.469 162.682 243.46 162.681 243.451 162.679L238.783 194.22C238.446 196.498 237.559 198.607 236.25 200.395L265.67 221.489C265.859 221.624 265.902 221.888 265.767 222.077C265.631 222.266 265.368 222.309 265.179 222.174L235.732 201.06C234.066 203.068 231.838 204.607 229.255 205.43L202.437 213.986ZM243.575 161.845L293.016 166.289L296.771 132.678H247.892L243.575 161.845Z" fill="#F56843"/>
<path fill-rule="evenodd" clip-rule="evenodd" d="M108.978 227.729C108.978 227.729 95.871 234.564 69.6562 248.233L80.8116 268.713L114.596 245.963C110.851 233.807 108.978 227.729 108.978 227.729Z" fill="#FFAFAF"/>
<path fill-rule="evenodd" clip-rule="evenodd" d="M369.628 320.698L361.483 254.412L365.696 252.446L383.11 226.606L386.199 225.763C387.317 225.496 388.16 225.496 388.727 225.763C389.295 226.03 390.044 226.779 390.974 228.01V306.655C390.356 308.142 389.794 309.172 389.289 309.744C388.784 310.317 387.941 310.878 386.761 311.429L369.628 320.698ZM294.635 379.12L348.001 359.458L350.529 366.761L385.357 375.749L386.761 378.277C386.444 380.134 386.07 381.445 385.638 382.209C385.206 382.974 384.363 383.816 383.11 384.737L310.364 401.87C308.859 402.021 307.642 401.834 306.713 401.308C305.783 400.783 304.847 399.753 303.904 398.219L294.635 379.12Z" fill="white"/>
<path d="M108.582 227.379L69.2602 247.883C69.0512 247.992 68.9723 248.251 69.085 248.458L80.2404 268.938C80.3591 269.156 80.6397 269.225 80.8457 269.086L114.63 246.336C114.784 246.232 114.852 246.04 114.797 245.862L109.18 227.629C109.102 227.377 108.816 227.258 108.582 227.379ZM113.9 245.811L80.7589 268.129L70.0302 248.432L108.523 228.36L113.9 245.811Z" fill="#F56843"/>
<path fill-rule="evenodd" clip-rule="evenodd" d="M229.473 297.386V298.252L190.993 223.797L136.504 246.829C137.519 280.081 142.174 302.176 150.468 313.115C158.762 324.053 173.487 327.517 194.644 323.507H225.26L229.473 297.386Z" fill="#FFD1D1"/>
<path d="M229.973 297.386V298.252C229.973 298.414 229.893 298.536 229.782 298.606L225.755 323.574C225.722 323.778 225.546 323.928 225.339 323.928H194.763C173.486 327.953 158.613 324.449 150.212 313.369C141.85 302.341 137.18 280.176 136.162 246.842C136.157 246.668 136.259 246.508 136.419 246.441L190.908 223.409C191.111 223.323 191.346 223.408 191.447 223.604L229.378 296.998C229.627 296.894 229.973 297.035 229.973 297.386ZM229.864 298.09L229.884 297.976L229.82 297.852C229.858 297.926 229.873 298.008 229.864 298.09ZM190.877 224.337L137.013 247.104C138.044 280.114 142.681 302.043 150.883 312.86C159.064 323.65 173.63 327.076 194.645 323.093L194.724 323.086H224.98L229.007 298.116L190.877 224.337Z" fill="#F56843"/>
<path fill-rule="evenodd" clip-rule="evenodd" d="M219.361 279.129L222.17 284.466C213.539 291.274 206.705 296.049 201.666 298.79C196.628 301.532 191.104 304.059 185.095 306.374L181.724 300.475C187.202 298.11 192.445 295.489 197.453 292.611C202.461 289.733 209.764 285.239 219.361 279.129Z" fill="#FFAFAF"/>
<path fill-rule="evenodd" clip-rule="evenodd" d="M235.933 393.444L369.066 321.26L361.763 254.693L229.753 319.575" fill="#FFAFAF"/>
<path d="M219.126 278.499C209.251 285.155 201.582 290.018 196.123 293.086C190.675 296.149 185.55 298.478 180.749 300.076C180.528 300.149 180.408 300.388 180.482 300.609C180.555 300.829 180.794 300.949 181.015 300.875C185.87 299.26 191.043 296.908 196.536 293.821C202.019 290.74 209.704 285.866 219.597 279.198C219.79 279.068 219.841 278.806 219.71 278.613C219.58 278.42 219.319 278.369 219.126 278.499Z" fill="#F56843"/>
<path d="M222.117 284.13C212.949 291.082 204.941 296.407 198.096 300.105C191.28 303.786 186.633 305.738 184.215 305.954C183.983 305.975 183.812 306.18 183.833 306.411C183.853 306.643 184.058 306.814 184.29 306.793C186.863 306.563 191.579 304.583 198.496 300.846C205.383 297.126 213.426 291.778 222.626 284.801C222.811 284.661 222.848 284.397 222.707 284.211C222.566 284.026 222.302 283.989 222.117 284.13Z" fill="#F56843"/>
<path d="M368.756 320.879C368.741 320.843 368.731 320.805 368.727 320.765L361.427 255.063L229.738 319.953C229.53 320.056 229.277 319.97 229.174 319.761C229.071 319.552 229.157 319.3 229.366 319.197L364.927 252.399L382.268 226.833C382.879 225.933 383.901 225.4 384.988 225.415C385.373 225.421 385.742 225.494 386.083 225.623C386.106 225.584 386.144 225.537 386.199 225.483C386.386 225.295 386.605 225.177 386.856 225.127C387.109 225.077 387.366 225.051 387.624 225.05C389.805 225.047 391.576 226.812 391.58 228.993L391.698 304.438C391.703 307.682 390.086 310.875 386.982 311.659L386.981 311.716C386.979 311.869 386.894 312.008 386.76 312.081L235.932 393.815C235.727 393.925 235.472 393.85 235.361 393.645C235.25 393.44 235.326 393.185 235.53 393.074L368.756 320.879ZM369.54 320.454L386.142 311.458L387.329 228.68C387.348 227.362 386.294 226.277 384.976 226.259C384.172 226.247 383.417 226.641 382.966 227.306L365.562 252.964C365.521 253.024 365.465 253.073 365.4 253.105L362.15 254.706C362.21 254.77 362.251 254.854 362.262 254.948L369.54 320.454ZM386.95 226.116C387.707 226.717 388.186 227.651 388.172 228.692L386.994 310.781C389.579 309.998 390.859 307.218 390.855 304.44L390.737 228.995C390.734 227.279 389.341 225.89 387.626 225.893C387.423 225.893 387.22 225.914 387.021 225.953C386.996 226.015 386.973 226.069 386.95 226.116Z" fill="#F56843"/>
<path fill-rule="evenodd" clip-rule="evenodd" d="M129.763 310.888L134.056 334.2L166.072 390.711C174.496 405.58 192.452 412.156 208.487 406.244L219.708 402.107C230.504 398.127 239.817 390.927 246.388 381.482L275.39 339.798L294.635 379.12L348.001 359.459L310.484 270.732C306.374 261.011 296.843 254.693 286.288 254.693C275.136 254.693 264.437 259.112 256.535 266.981L206.24 317.067" fill="#FFD1D1"/>
<path fill-rule="evenodd" clip-rule="evenodd" d="M254.47 269.018C263.458 275.946 272.821 280.908 282.557 283.904C292.294 286.9 303.061 286.244 314.858 281.938C312.225 273.214 309.322 267.129 306.151 263.681C302.372 259.574 295.327 255.917 291.264 254.974C285.934 253.736 276.089 255.168 268.233 258.906C264.453 260.704 259.866 264.075 254.47 269.018Z" fill="#FFAFAF"/>
<path d="M386.627 377.371L386.778 377.334L386.785 377.36C387.659 380.989 385.427 384.639 381.798 385.514L311.633 402.429C308.467 403.192 305.194 401.734 303.636 398.896C303.503 398.874 303.384 398.79 303.323 398.663L275.323 340.61L246.734 381.703C240.113 391.218 230.73 398.472 219.854 402.482L208.632 406.619C192.404 412.602 174.231 405.947 165.705 390.898L133.689 334.388C133.666 334.347 133.65 334.302 133.641 334.256L129.349 310.944C129.306 310.715 129.458 310.495 129.687 310.453C129.915 310.411 130.135 310.562 130.177 310.791L134.457 334.034L166.438 390.483C174.761 405.172 192.5 411.669 208.341 405.828L219.562 401.691C230.277 397.741 239.52 390.596 246.042 381.221L275.044 339.537C275.228 339.272 275.629 339.304 275.769 339.594L294.619 378.676L347.383 359.237L315.718 284.223V284.223C296.981 293.356 276.037 288.975 252.938 271.137L206.537 317.345C206.372 317.51 206.105 317.509 205.941 317.344C205.777 317.179 205.778 316.912 205.942 316.748L256.238 266.662C264.219 258.714 275.024 254.252 286.288 254.252C297.012 254.252 306.692 260.673 310.863 270.552L348.246 359.116C348.312 359.164 348.366 359.231 348.396 359.313C348.421 359.382 348.428 359.453 348.417 359.521L351.195 366.103L384.193 374.434C385.372 374.732 386.284 375.667 386.552 376.853C386.592 377.026 386.616 377.199 386.627 377.371ZM386.12 379.311C385.678 379.999 384.976 380.521 384.115 380.716L304.512 398.728C305.936 401.077 308.73 402.262 311.436 401.61L381.601 384.695C384.188 384.071 385.964 381.835 386.12 379.311ZM294.987 379.439L303.936 397.995L383.929 379.894C385.215 379.603 386.022 378.325 385.731 377.039C385.532 376.162 384.858 375.471 383.987 375.251L350.786 366.869C350.658 366.836 350.552 366.746 350.501 366.624L347.711 360.014L294.987 379.439ZM315.39 283.445L310.086 270.88C306.048 261.313 296.673 255.094 286.288 255.094C275.247 255.094 264.656 259.468 256.832 267.259L253.541 270.537C276.389 288.153 296.988 292.436 315.39 283.445V283.445Z" fill="#F56843"/>
<path fill-rule="evenodd" clip-rule="evenodd" d="M157.288 218.18L52.2326 285.271C28.3363 300.532 19.5587 331.208 31.7656 356.799L39.2994 372.593C52.6562 400.595 86.184 412.467 114.186 399.111C115.681 398.397 117.144 397.618 118.571 396.776L166.631 368.387C175.581 363.1 182.889 355.434 187.741 346.24L188.325 345.134C193.353 335.607 193.51 324.247 188.748 314.584L176.949 290.645C159.437 303.702 149.981 312.69 148.581 317.609C147.334 321.995 133.054 331.031 105.743 344.717C99.8193 347.685 92.6092 345.605 89.1769 339.938C86.42 335.386 87.8753 329.461 92.4274 326.704C92.9478 326.389 93.4968 326.123 94.0672 325.912L145.211 306.935" fill="#FFD1D1"/>
<path fill-rule="evenodd" clip-rule="evenodd" d="M30.3342 354.122C31.7386 358.054 37.8366 370.364 40.1647 374.345C42.6141 378.532 45.2204 382.49 48.5909 386.422C51.9286 390.316 56.4192 394.166 63.1962 397.657C65.4637 398.825 67.898 400.042 70.4989 401.309C68.7495 386.547 66.7834 376.248 64.6006 370.413C62.831 365.682 61.0311 360.94 58.4214 357.212C51.8677 347.849 41.2751 338.386 26.6434 328.821C25.359 335.202 26.5892 343.636 30.3342 354.122Z" fill="#FFAFAF"/>
<path fill-rule="evenodd" clip-rule="evenodd" d="M150.548 312.272L151.109 319.575C157.868 332.368 162.023 340.092 163.575 342.745C165.208 345.537 168.449 352.419 173.298 363.391C178.732 358.684 183.039 353.816 186.218 348.786C189.398 343.755 191.364 338.699 192.117 333.618C192.866 326.878 190.993 319.294 186.499 310.868C184.258 306.665 180.981 299.643 176.669 289.802C164.446 296.275 155.926 301.611 151.109 305.812C146.292 310.013 146.105 312.166 150.548 312.272Z" fill="white"/>
<path d="M188.169 314.513C192.871 324.054 192.716 335.272 187.751 344.68L187.167 345.786C182.351 354.91 175.098 362.52 166.215 367.767L117.983 396.257C116.619 397.062 115.222 397.81 113.794 398.496C86.0457 411.843 52.7313 400.168 39.3845 372.419L32.1298 357.336C20.0005 332.119 28.4431 301.817 51.8647 286.504L155.834 218.532C156.028 218.405 156.083 218.144 155.956 217.949C155.828 217.754 155.567 217.7 155.373 217.827L51.4036 285.799C27.628 301.343 19.0578 332.103 31.3704 357.701L38.6252 372.784C52.1737 400.952 85.9916 412.804 114.16 399.255C115.609 398.558 117.027 397.8 118.412 396.982L166.644 368.492C175.661 363.166 183.024 355.442 187.912 346.179L188.496 345.073C193.587 335.427 193.747 323.924 188.925 314.14L177.126 290.201C177.026 289.998 176.783 289.91 176.576 290.003C162.607 296.266 154.035 300.953 150.814 304.107C149.342 305.548 148.525 307.37 148.191 309.58C147.983 310.957 147.968 312.147 148.053 314.276C148.127 316.145 148.122 316.719 147.975 317.236C146.779 321.441 132.481 330.488 105.353 344.083C99.6255 346.953 92.6544 344.942 89.3359 339.462C86.7403 335.176 88.1104 329.598 92.3962 327.002C92.924 326.683 93.483 326.418 94.0646 326.211L147.318 307.332C147.537 307.255 147.652 307.014 147.574 306.795C147.496 306.575 147.256 306.461 147.036 306.538L93.7831 325.417C93.1475 325.643 92.5365 325.932 91.9597 326.282C87.2759 329.118 85.7785 335.215 88.6152 339.899C92.1612 345.754 99.6103 347.903 105.73 344.836C133.224 331.058 147.486 322.033 148.785 317.466C148.969 316.822 148.974 316.236 148.895 314.242C148.812 312.164 148.826 311.015 149.024 309.706C149.333 307.665 150.075 306.01 151.404 304.709C154.499 301.679 162.896 297.075 176.55 290.938L188.169 314.513Z" fill="#F56843"/>
<path fill-rule="evenodd" clip-rule="evenodd" d="M191.072 223.74C181.257 201.936 175.359 187.451 173.377 180.285C166.952 157.055 162.468 136.793 138.468 136.793C114.469 136.793 95.0135 156.249 95.0135 180.249C95.0135 187.085 100.912 209.005 112.708 246.009C130.107 245.939 144.182 245.073 154.936 243.41C165.689 241.747 177.734 235.19 191.072 223.74Z" fill="#FFD1D1" stroke="#F56843" stroke-width="0.842617" stroke-linecap="round" stroke-linejoin="round"/>
<path fill-rule="evenodd" clip-rule="evenodd" d="M190.993 223.673C181.178 201.869 175.28 187.384 173.298 180.218C166.873 156.988 162.389 136.726 138.389 136.726C114.39 136.726 94.9342 156.182 94.9342 180.182C94.9342 187.018 100.833 208.938 112.629 245.942C130.027 245.872 144.103 245.006 154.856 243.343C165.61 241.68 177.655 235.123 190.993 223.673Z" fill="#FFD1D1"/>
<path fill-rule="evenodd" clip-rule="evenodd" d="M190.993 223.673C181.178 201.869 175.28 187.384 173.298 180.218C166.873 156.988 162.389 136.726 138.389 136.726C114.39 136.726 94.9342 156.182 94.9342 180.182C94.9342 187.018 100.833 208.938 112.629 245.942C130.027 245.872 144.103 245.006 154.856 243.343C165.61 241.68 177.655 235.123 190.993 223.673Z" stroke="#F56843" stroke-width="0.842617" stroke-linecap="round" stroke-linejoin="round"/>
<path d="M191.377 223.501C181.572 201.717 175.679 187.244 173.704 180.106C173.446 179.171 172.301 175 171.992 173.887C168.212 160.245 165.596 153.279 161.384 147.426C156.066 140.034 148.791 136.306 138.39 136.306C114.158 136.306 94.5135 155.95 94.5135 180.183C94.5135 187.084 100.412 209.006 112.228 246.07C112.284 246.246 112.447 246.364 112.631 246.364C130.049 246.294 144.144 245.426 154.921 243.76C165.764 242.083 177.876 235.49 191.268 223.994C191.409 223.872 191.454 223.671 191.377 223.501ZM154.793 242.927C144.127 244.576 130.174 245.441 112.937 245.52C101.223 208.755 95.3562 186.936 95.3562 180.183C95.3562 156.415 114.623 137.148 138.39 137.148C148.519 137.148 155.54 140.746 160.7 147.918C164.834 153.663 167.426 160.565 171.18 174.112C171.488 175.223 172.633 179.395 172.892 180.331C174.873 187.494 180.734 201.895 190.48 223.559C177.292 234.836 165.393 241.288 154.793 242.927Z" fill="#F56843"/>
<path d="M118.064 200.181C118.064 200.181 141.527 209.394 177.179 196.865C177.792 196.65 178.464 196.265 179.196 195.71C177.353 192.022 176.23 189.494 175.826 188.127C174.183 182.558 174.031 179.021 172.175 175.487C170.975 173.203 170.555 169.305 169.366 165.657C168.724 163.688 167.507 160.598 165.715 156.388C163.933 152.852 162.716 150.512 162.063 149.366C161.064 147.612 161.063 145.9 159.759 146.09C152.713 147.115 145.115 151.686 136.964 159.8C118.023 178.658 118.064 200.181 118.064 200.181Z" fill="#F56843"/>
<path fill-rule="evenodd" clip-rule="evenodd" d="M133.134 163.971C135.1 161.724 136.188 160.317 137.908 158.635C139.629 156.952 141.841 154.984 145.773 152.175C147.833 157.605 149.892 163.503 152.514 171.555C156.446 183.632 150.22 185.537 142.683 177.453C137.659 172.064 134.663 167.758 133.134 163.971ZM155.412 163.273C156.813 163.371 157.576 169.45 158.004 170.494C158.243 171.075 157.965 171.74 157.383 171.979C156.852 172.197 156.241 171.985 155.96 171.484C154.318 168.571 153.504 166.822 153.516 166.238C153.546 164.761 154.011 163.175 155.412 163.273Z" fill="white"/>
<path d="M147.537 305.812C166.462 305.812 181.804 290.47 181.804 271.546C181.804 252.621 166.462 237.279 147.537 237.279C128.613 237.279 113.271 252.621 113.271 271.546C113.271 290.47 128.613 305.812 147.537 305.812Z" fill="#F56843"/>
<path d="M118.457 197.303C115.495 184.158 119.845 171.661 131.547 159.773C143.251 147.883 151.52 142.123 156.212 142.483C156.444 142.501 156.147 142.576 156.165 142.344C156.183 142.112 156.116 142.081 155.884 142.063C155.75 142.053 156.006 141.627 155.867 141.626C150.782 141.571 142.519 147.426 130.947 159.182C119.055 171.262 114.605 184.044 117.635 197.488C117.686 197.715 117.911 197.857 118.138 197.806C118.365 197.755 118.508 197.53 118.457 197.303Z" fill="#F56843"/>
<path fill-rule="evenodd" clip-rule="evenodd" d="M125.349 298.228L137.988 265.908L169.688 256.719C170.88 256.374 172.126 257.06 172.471 258.252C172.679 258.969 172.517 259.743 172.038 260.317L153.998 281.938L152.514 305.812L125.349 298.228Z" fill="white"/>
<path fill-rule="evenodd" clip-rule="evenodd" d="M137.917 265.928C133.605 270.638 130.864 273.735 129.693 275.217C123.543 283.001 123.77 285.943 126.682 287.836C132.3 291.488 138.119 298.811 142.051 292.07C144.672 287.576 143.295 278.862 137.917 265.928Z" fill="#FFD1D1"/>
<path d="M137.677 265.623C137.885 265.396 138.258 265.462 138.377 265.746C143.802 278.796 145.197 287.613 142.485 292.261C140.939 294.912 138.97 295.71 136.557 294.941C134.814 294.387 133.494 293.485 129.989 290.729C129.149 290.07 128.658 289.69 128.13 289.297C127.548 288.863 127.023 288.494 126.523 288.169C122.992 285.874 123.637 282.272 129.432 274.936C130.612 273.442 133.358 270.341 137.677 265.623ZM141.757 291.837C144.249 287.566 142.97 279.161 137.851 266.681C133.804 271.109 131.215 274.038 130.094 275.458C124.563 282.458 124.013 285.533 126.982 287.463C127.499 287.798 128.038 288.178 128.633 288.621C129.169 289.019 129.665 289.403 130.509 290.067C133.919 292.748 135.208 293.628 136.812 294.139C138.844 294.785 140.407 294.152 141.757 291.837ZM154.976 280.855C155.109 280.664 155.371 280.616 155.563 280.749C155.754 280.882 155.801 281.144 155.668 281.335C154.036 283.686 152.535 284.887 151.109 284.887C150.877 284.887 150.688 284.698 150.688 284.466C150.688 284.233 150.877 284.044 151.109 284.044C152.18 284.044 153.487 282.999 154.976 280.855Z" fill="#F56843"/>
<path d="M116.562 205.26C118.889 205.26 120.775 203.373 120.775 201.047C120.775 198.72 118.889 196.833 116.562 196.833C114.235 196.833 112.349 198.72 112.349 201.047C112.349 203.373 114.235 205.26 116.562 205.26Z" fill="white"/>
<path d="M116.361 205.681C118.92 205.681 120.995 203.606 120.995 201.047C120.995 198.487 118.92 196.412 116.361 196.412C113.801 196.412 111.726 198.487 111.726 201.047C111.726 203.606 113.801 205.681 116.361 205.681ZM116.361 204.838C114.267 204.838 112.569 203.141 112.569 201.047C112.569 198.952 114.267 197.255 116.361 197.255C118.455 197.255 120.152 198.952 120.152 201.047C120.152 203.141 118.455 204.838 116.361 204.838Z" fill="#F56843"/>
<path d="M116.361 203.434C117.823 203.434 119.029 202.379 119.029 201.047C119.029 199.715 117.823 198.659 116.361 198.659C114.899 198.659 113.692 199.715 113.692 201.047C113.692 202.379 114.899 203.434 116.361 203.434ZM116.361 202.591C115.341 202.591 114.535 201.886 114.535 201.047C114.535 200.207 115.341 199.502 116.361 199.502C117.381 199.502 118.186 200.207 118.186 201.047C118.186 201.886 117.381 202.591 116.361 202.591Z" fill="#F56843"/>
<path fill-rule="evenodd" clip-rule="evenodd" d="M152.514 303.846L150.908 319.575L127.034 333.618L108.136 343.449L98.8669 331.09C106.617 330.641 111.017 329.424 112.068 327.439C115.178 321.563 119.579 311.92 125.269 298.509L152.514 303.846Z" fill="white"/>
<path d="M152.595 303.152C152.808 303.193 152.955 303.391 152.933 303.608L151.327 319.337C151.313 319.47 151.237 319.589 151.121 319.657L127.228 333.711L108.33 343.542C108.147 343.637 107.922 343.586 107.799 343.421L98.53 331.062C98.3283 330.794 98.5072 330.409 98.8426 330.389C106.436 329.949 110.745 328.757 111.696 326.961C114.799 321.099 119.195 311.464 124.881 298.064C124.959 297.881 125.155 297.777 125.35 297.815L152.595 303.152ZM125.523 298.708C119.893 311.965 115.533 321.513 112.44 327.355C111.328 329.457 107.094 330.688 99.6727 331.182L108.258 342.629L126.82 332.974L150.51 319.039L152.055 303.905L125.523 298.708ZM150.694 318.931L150.489 319.251L150.51 319.039L150.694 318.931Z" fill="#F56843"/>
<path fill-rule="evenodd" clip-rule="evenodd" d="M49.9953 188.969C47.2031 188.969 44.9396 186.706 44.9396 183.913C44.9396 181.121 47.2031 178.858 49.9953 178.858C52.7875 178.858 55.051 181.121 55.051 183.913C55.051 186.706 52.7875 188.969 49.9953 188.969ZM99.4288 201.608L100.754 206.664C100.436 206.772 100.121 206.889 99.8101 207.014C90.9286 210.609 86.6429 220.724 90.2378 229.605L92.8892 236.156L87.8335 238.964L84.8426 229.227C81.6165 218.725 86.6689 207.457 96.6569 202.879L99.4288 201.608Z" fill="white"/>
<path d="M61.647 207.568C61.6598 207.482 61.6454 207.394 61.6059 207.316L52.0563 188.498C51.951 188.29 51.6974 188.207 51.4899 188.313C51.2824 188.418 51.1996 188.671 51.3049 188.879L60.7938 207.578L59.69 215.028C59.6617 215.219 59.7664 215.405 59.9441 215.479L67.6472 218.703L80.2394 242.103C80.3497 242.308 80.6051 242.385 80.81 242.274C81.0149 242.164 81.0917 241.909 80.9814 241.704L68.3185 218.172C68.2728 218.087 68.1992 218.02 68.1102 217.983L60.5715 214.828L61.647 207.568Z" fill="#F56843"/>
<path d="M49.7939 189.39C46.769 189.39 44.3169 186.938 44.3169 183.913C44.3169 180.889 46.769 178.436 49.7939 178.436C52.8188 178.436 55.2709 180.889 55.2709 183.913C55.2709 186.938 52.8188 189.39 49.7939 189.39ZM49.7939 188.548C52.3534 188.548 54.4283 186.473 54.4283 183.913C54.4283 181.354 52.3534 179.279 49.7939 179.279C47.2344 179.279 45.1595 181.354 45.1595 183.913C45.1595 186.473 47.2344 188.548 49.7939 188.548ZM99.0519 201.225C99.2898 201.116 99.5686 201.248 99.635 201.502L100.96 206.557C101.016 206.771 100.897 206.992 100.687 207.063C100.377 207.168 100.07 207.282 99.7668 207.405C91.1009 210.913 86.9193 220.781 90.427 229.447L93.0784 235.998C93.1582 236.195 93.0784 236.421 92.8924 236.524L87.8367 239.333C87.6026 239.463 87.3081 239.344 87.2294 239.088L84.2385 229.351C80.9504 218.646 86.0999 207.162 96.28 202.496L99.0519 201.225ZM96.631 203.262C86.8351 207.752 81.8799 218.803 85.044 229.104L87.8822 238.343L92.1575 235.968L89.6459 229.763C85.9637 220.666 90.3534 210.306 99.4507 206.624C99.6478 206.544 99.8464 206.468 100.046 206.395L98.947 202.2L96.631 203.262Z" fill="#F56843"/>
<path d="M60.4895 354.308C67.8468 364.338 72.5336 380.365 74.5698 402.393L73.7308 402.471C71.6776 380.259 66.9236 364.226 59.4896 354.376C53.4128 346.324 46.888 339.692 40.17 334.346C35.2392 330.422 30.6255 327.513 26.5841 325.485L26.962 324.732C31.054 326.785 35.717 329.725 40.6947 333.687C47.3997 339.023 53.9108 345.626 59.9791 353.626L88.2742 338.303C88.4788 338.193 88.7345 338.269 88.8453 338.473C88.9561 338.678 88.88 338.934 88.6754 339.044L60.4895 354.308ZM100.683 346.342C100.572 346.138 100.647 345.882 100.851 345.771C101.055 345.659 101.311 345.734 101.423 345.938L126.481 391.838C126.593 392.042 126.518 392.298 126.314 392.409C126.109 392.521 125.853 392.446 125.742 392.241L100.683 346.342ZM91.4891 326.972C91.5917 327.181 91.5055 327.434 91.2966 327.536C91.0878 327.639 90.8353 327.553 90.7327 327.344L65.9077 276.787C65.8052 276.578 65.8913 276.325 66.1002 276.223C66.3091 276.12 66.5615 276.207 66.6641 276.415L91.4891 326.972Z" fill="#F56843"/>
<path d="M112.911 246.267L125.349 271.546" stroke="#F56843" stroke-width="0.842617" stroke-linecap="round" stroke-linejoin="round"/>
<path d="M151.048 319.434L173.298 363.196" stroke="#F56843" stroke-width="0.842617" stroke-linecap="round" stroke-linejoin="round"/>
<path d="M502.366 119.188C502.59 119.125 502.823 119.256 502.886 119.479C502.949 119.703 502.819 119.936 502.595 119.999L466.844 130.07C458.109 132.53 453.023 141.606 455.483 150.34C456.057 152.376 457.018 154.282 458.314 155.954L463.557 162.715C468.639 169.269 467.445 178.703 460.891 183.785C457.948 186.067 454.262 187.174 450.548 186.891L432.521 185.518C423.369 184.821 414.433 188.53 408.464 195.503L399.72 205.717C399.569 205.894 399.303 205.914 399.126 205.763C398.95 205.612 398.929 205.346 399.08 205.169L407.824 194.955C413.968 187.778 423.165 183.961 432.585 184.678L450.612 186.051C454.117 186.318 457.597 185.273 460.375 183.119C466.561 178.322 467.688 169.418 462.891 163.231L457.648 156.47C456.286 154.713 455.275 152.709 454.672 150.569C452.086 141.386 457.433 131.845 466.615 129.259L502.366 119.188ZM440.408 241.211V233.909C440.408 233.598 440.659 233.347 440.969 233.347C441.28 233.347 441.531 233.598 441.531 233.909V241.211H448.834C449.144 241.211 449.396 241.463 449.396 241.773C449.396 242.083 449.144 242.335 448.834 242.335H441.531V249.638C441.531 249.948 441.28 250.199 440.969 250.199C440.659 250.199 440.408 249.948 440.408 249.638V242.335H433.105C432.795 242.335 432.543 242.083 432.543 241.773C432.543 241.463 432.795 241.211 433.105 241.211H440.408ZM177.511 61.4532V54.1505C177.511 53.8402 177.763 53.5887 178.073 53.5887C178.383 53.5887 178.635 53.8402 178.635 54.1505V61.4532H185.937C186.248 61.4532 186.499 61.7047 186.499 62.0149C186.499 62.3252 186.248 62.5767 185.937 62.5767H178.635V69.8793C178.635 70.1896 178.383 70.4411 178.073 70.4411C177.763 70.4411 177.511 70.1896 177.511 69.8793V62.5767H170.209C169.898 62.5767 169.647 62.3252 169.647 62.0149C169.647 61.7047 169.898 61.4532 170.209 61.4532H177.511ZM415.691 94.0343V86.7317C415.691 86.4214 415.942 86.1699 416.253 86.1699C416.563 86.1699 416.814 86.4214 416.814 86.7317V94.0343H424.117C424.427 94.0343 424.679 94.2858 424.679 94.5961C424.679 94.9063 424.427 95.1578 424.117 95.1578H416.814V102.461C416.814 102.771 416.563 103.022 416.253 103.022C415.942 103.022 415.691 102.771 415.691 102.461V95.1578H408.388C408.078 95.1578 407.826 94.9063 407.826 94.5961C407.826 94.2858 408.078 94.0343 408.388 94.0343H415.691ZM6.17919 241.211V235.594C6.17919 235.284 6.43069 235.032 6.74093 235.032C7.05118 235.032 7.30268 235.284 7.30268 235.594V241.211H12.9201C13.2304 241.211 13.4819 241.463 13.4819 241.773C13.4819 242.083 13.2304 242.335 12.9201 242.335H7.30268V247.952C7.30268 248.263 7.05118 248.514 6.74093 248.514C6.43069 248.514 6.17919 248.263 6.17919 247.952V242.335H0.561744C0.251502 242.335 0 242.083 0 241.773C0 241.463 0.251502 241.211 0.561744 241.211H6.17919ZM350.809 159.758V154.422C350.809 154.112 351.061 153.86 351.371 153.86C351.681 153.86 351.933 154.112 351.933 154.422V159.758H357.269C357.58 159.758 357.831 160.01 357.831 160.32C357.831 160.63 357.58 160.882 357.269 160.882H351.933V166.219C351.933 166.529 351.681 166.78 351.371 166.78C351.061 166.78 350.809 166.529 350.809 166.219V160.882H345.473C345.163 160.882 344.911 160.63 344.911 160.32C344.911 160.01 345.163 159.758 345.473 159.758H350.809ZM208.126 143.187V137.85C208.126 137.54 208.378 137.289 208.688 137.289C208.998 137.289 209.25 137.54 209.25 137.85V143.187H214.586C214.897 143.187 215.148 143.438 215.148 143.749C215.148 144.059 214.897 144.31 214.586 144.31H209.25V149.647C209.25 149.957 208.998 150.209 208.688 150.209C208.378 150.209 208.126 149.957 208.126 149.647V144.31H202.79C202.48 144.31 202.228 144.059 202.228 143.749C202.228 143.438 202.48 143.187 202.79 143.187H208.126Z" fill="#F56843"/>
<path fill-rule="evenodd" clip-rule="evenodd" d="M152.889 265.637C150.16 263.681 147.928 263.192 146.191 264.17C143.587 265.637 140.238 268.571 142.098 272.238C143.959 275.906 145.447 278.84 147.307 278.84C149.168 278.84 152.517 279.206 154.377 275.172C155.617 272.483 155.121 269.304 152.889 265.637Z" fill="#FFD1D1"/>
<path fill-rule="evenodd" clip-rule="evenodd" d="M152.736 267.324C152.544 269.313 151.881 270.595 150.749 271.169C149.759 271.672 148.21 271.964 146.102 272.047C145.172 272.083 144.388 271.359 144.352 270.429C144.339 270.11 144.417 269.795 144.577 269.519C145.736 267.516 146.763 266.287 147.659 265.833C148.6 265.356 149.826 265.245 151.339 265.5C152.211 265.647 152.822 266.443 152.736 267.324Z" fill="white"/>
<path d="M152.037 267.989C151.755 268.434 151.194 268.737 150.547 268.737C149.617 268.737 148.862 268.108 148.862 267.332C148.862 266.575 149.581 265.958 150.481 265.929C149.322 265.805 148.379 265.933 147.649 266.304C146.845 266.711 145.861 267.888 144.74 269.825C144.621 270.032 144.562 270.269 144.571 270.508C144.599 271.205 145.186 271.749 145.884 271.721C147.937 271.641 149.432 271.358 150.357 270.889C151.228 270.447 151.794 269.493 152.037 267.989ZM151.245 266.054C151.386 266.099 151.514 266.167 151.627 266.254C151.512 266.174 151.384 266.106 151.245 266.054ZM152.954 267.46C152.749 269.579 152.02 270.99 150.738 271.64C149.683 272.176 148.08 272.478 145.917 272.563C144.754 272.609 143.775 271.703 143.729 270.541C143.714 270.143 143.811 269.748 144.011 269.403C145.208 267.335 146.279 266.054 147.267 265.552C148.297 265.03 149.613 264.911 151.208 265.18C152.298 265.363 153.061 266.359 152.954 267.46Z" fill="#F56843"/>
<path fill-rule="evenodd" clip-rule="evenodd" d="M170.489 256.524C169.175 256.196 167.788 256.422 166.33 257.202L166.33 257.202C166.056 257.349 165.953 257.689 166.1 257.963C166.13 258.02 166.171 258.072 166.22 258.116C166.777 258.615 167.451 258.898 168.242 258.966C169.291 259.056 170.508 259.056 171.894 258.966C172.456 257.713 171.987 256.899 170.489 256.524Z" fill="#FFD1D1"/>
<path d="M170.873 256.056C169.451 255.701 167.958 255.944 166.412 256.771C165.933 257.027 165.753 257.623 166.009 258.102C166.063 258.203 166.134 258.293 166.22 258.37C166.846 258.931 167.606 259.251 168.488 259.326C169.559 259.418 170.796 259.418 172.202 259.327C172.358 259.317 172.495 259.221 172.559 259.079C173.234 257.572 172.612 256.491 170.873 256.056ZM168.559 258.486C167.858 258.426 167.27 258.179 166.782 257.742C166.77 257.731 166.76 257.719 166.752 257.704C166.715 257.636 166.741 257.551 166.81 257.514C168.18 256.78 169.461 256.572 170.668 256.874C171.824 257.162 172.182 257.648 171.883 258.502C170.627 258.574 169.519 258.568 168.559 258.486Z" fill="#F56843"/>
<path fill-rule="evenodd" clip-rule="evenodd" d="M519.614 94.0343L513.996 95.4387L528.321 109.482L530.006 103.865" fill="white"/>
<path d="M304.185 379.962C306.511 379.962 308.398 378.076 308.398 375.749C308.398 373.422 306.511 371.536 304.185 371.536C301.858 371.536 299.971 373.422 299.971 375.749C299.971 378.076 301.858 379.962 304.185 379.962Z" fill="white"/>
<path d="M303.983 380.384C306.543 380.384 308.618 378.309 308.618 375.749C308.618 373.19 306.543 371.115 303.983 371.115C301.424 371.115 299.349 373.19 299.349 375.749C299.349 378.309 301.424 380.384 303.983 380.384ZM303.983 379.541C301.889 379.541 300.191 377.843 300.191 375.749C300.191 373.655 301.889 371.957 303.983 371.957C306.077 371.957 307.775 373.655 307.775 375.749C307.775 377.843 306.077 379.541 303.983 379.541Z" fill="#F56843"/>
<path d="M367.662 313.115C369.989 313.115 371.875 311.228 371.875 308.902C371.875 306.575 369.989 304.688 367.662 304.688C365.335 304.688 363.449 306.575 363.449 308.902C363.449 311.228 365.335 313.115 367.662 313.115Z" fill="white"/>
<path d="M367.662 313.536C370.221 313.536 372.296 311.461 372.296 308.901C372.296 306.342 370.221 304.267 367.662 304.267C365.102 304.267 363.027 306.342 363.027 308.901C363.027 311.461 365.102 313.536 367.662 313.536ZM367.662 312.693C365.568 312.693 363.87 310.996 363.87 308.901C363.87 306.807 365.568 305.11 367.662 305.11C369.756 305.11 371.454 306.807 371.454 308.901C371.454 310.996 369.756 312.693 367.662 312.693Z" fill="#F56843"/>
<path d="M303.983 378.137C305.445 378.137 306.652 377.081 306.652 375.749C306.652 374.417 305.445 373.362 303.983 373.362C302.521 373.362 301.315 374.417 301.315 375.749C301.315 377.081 302.521 378.137 303.983 378.137ZM303.983 377.294C302.963 377.294 302.158 376.589 302.158 375.749C302.158 374.91 302.963 374.204 303.983 374.204C305.003 374.204 305.809 374.91 305.809 375.749C305.809 376.589 305.003 377.294 303.983 377.294Z" fill="#F56843"/>
<path d="M367.662 311.289C369.124 311.289 370.33 310.234 370.33 308.902C370.33 307.57 369.124 306.514 367.662 306.514C366.2 306.514 364.993 307.57 364.993 308.902C364.993 310.234 366.2 311.289 367.662 311.289ZM367.662 310.446C366.642 310.446 365.836 309.741 365.836 308.902C365.836 308.062 366.642 307.357 367.662 307.357C368.682 307.357 369.487 308.062 369.487 308.902C369.487 309.741 368.682 310.446 367.662 310.446Z" fill="#F56843"/>
<path d="M120.29 201.358C124.702 205.387 134.338 207.181 149.233 206.804C164.098 206.428 174.654 204.166 180.914 199.993C181.108 199.864 181.16 199.602 181.031 199.409C180.902 199.215 180.64 199.163 180.447 199.292C174.348 203.357 163.932 205.589 149.212 205.962C134.522 206.334 125.059 204.571 120.858 200.736C120.686 200.579 120.419 200.591 120.263 200.763C120.106 200.934 120.118 201.201 120.29 201.358Z" fill="#F56843"/>
<path fill-rule="evenodd" clip-rule="evenodd" d="M605.715 11.5136C591.763 16.3136 577.542 24.8285 563.053 37.0583C548.107 49.6731 531.986 66.9913 514.689 89.0128L534.127 107.785C555.662 89.4903 572.407 72.7745 584.362 57.637C595.958 42.9559 604.034 28.5113 608.592 14.3031C608.851 13.4966 608.629 12.6132 608.019 12.0248C607.408 11.4347 606.518 11.2372 605.715 11.5136Z" fill="#FFD1D1"/>
<path fill-rule="evenodd" clip-rule="evenodd" d="M583.652 22.1311L598.539 35.8938C606.59 21.2885 609.773 13.2368 608.088 11.7388C606.403 10.2408 598.258 13.7049 583.652 22.1311Z" fill="#FFAFAF"/>
<path fill-rule="evenodd" clip-rule="evenodd" d="M525.94 107.457L517.086 118.189L517.928 110.044L510.907 111.729L513.715 105.55H505.57L515.776 97.4927L513.164 94.9317L519.512 93.3447L519.716 94.1622L514.829 95.384L528.118 108.412L529.602 103.463L530.41 103.705L528.524 109.991L525.94 107.457Z" fill="#F56843"/>
<path d="M562.773 36.5473C547.803 49.1825 531.662 66.521 514.349 88.5635C514.216 88.7334 514.232 88.9767 514.388 89.1268L533.826 107.899C533.982 108.049 534.227 108.057 534.392 107.917C555.946 89.6056 572.71 72.8708 584.685 57.709C596.31 42.9904 604.411 28.502 608.985 14.2428C609.292 13.2834 609.028 12.2326 608.304 11.5327C607.579 10.8326 606.522 10.5982 605.569 10.9261C591.565 15.7443 577.3 24.2858 562.773 36.5473ZM515.247 88.7849C532.438 66.9266 548.462 49.7285 563.316 37.1912C577.768 24.9932 591.944 16.5048 605.843 11.7229C606.497 11.4981 607.221 11.6588 607.718 12.1388C608.212 12.6157 608.392 13.3317 608.182 13.9854C603.641 28.1425 595.589 42.5433 584.023 57.1868C572.141 72.2319 555.512 88.8463 534.137 107.027L515.247 88.7849Z" fill="#F56843"/>
<path fill-rule="evenodd" clip-rule="evenodd" d="M543.595 59.2062L541.089 63.6673L514.975 88.843L495.431 90.0054L493.773 88.4045L543.595 59.2062ZM563.311 78.084L534.986 128.408L533.357 126.778L534.178 107.217L558.894 80.6674L563.311 78.084Z" fill="white"/>
<path d="M543.108 59.0428C543.479 58.8255 543.899 59.2379 543.689 59.6126L541.183 64.0737L541.108 64.1707L514.994 89.3464C514.922 89.4161 514.827 89.4577 514.726 89.4637L495.182 90.6261C495.065 90.6331 494.949 90.5905 494.865 90.5086L493.207 88.9077C493.006 88.7139 493.046 88.3822 493.286 88.2411L543.108 59.0428ZM494.192 88.6873L495.317 89.774L514.521 88.6318L540.478 63.6071L542.192 60.5565L494.192 88.6873ZM540.523 63.5641L540.448 63.6611L540.478 63.6071L540.523 63.5641ZM562.824 77.9205C563.195 77.7035 563.615 78.1162 563.404 78.4908L535.079 128.815C534.942 129.058 534.611 129.103 534.414 128.906L532.785 127.276C532.701 127.193 532.657 127.079 532.662 126.961L533.483 107.399C533.487 107.299 533.527 107.203 533.595 107.13L558.311 80.5805L558.407 80.5039L562.824 77.9205ZM558.886 81.2L534.318 107.59L533.511 126.811L534.617 127.917L561.906 79.4334L558.886 81.2Z" fill="#F56843"/>
<path d="M575.226 54.7122C579.88 54.7122 583.653 50.9397 583.653 46.286C583.653 41.6324 579.88 37.8599 575.226 37.8599C570.573 37.8599 566.8 41.6324 566.8 46.286C566.8 50.9397 570.573 54.7122 575.226 54.7122Z" fill="white"/>
<path d="M575.34 54.9369C580.226 54.9369 584.187 50.9757 584.187 46.0894C584.187 41.2031 580.226 37.2419 575.34 37.2419C570.453 37.2419 566.492 41.2031 566.492 46.0894C566.492 50.9757 570.453 54.9369 575.34 54.9369ZM575.34 54.0943C570.919 54.0943 567.335 50.5104 567.335 46.0894C567.335 41.6685 570.919 38.0846 575.34 38.0846C579.761 38.0846 583.344 41.6685 583.344 46.0894C583.344 50.5104 579.761 54.0943 575.34 54.0943Z" fill="#F56843"/>
<path d="M575.226 50.6396C572.822 50.6396 570.873 48.6904 570.873 46.2861C570.873 43.8817 572.822 41.9325 575.226 41.9325C577.631 41.9325 579.58 43.8817 579.58 46.2861C579.58 48.6904 577.631 50.6396 575.226 50.6396ZM575.226 49.797C577.165 49.797 578.737 48.2251 578.737 46.2861C578.737 44.347 577.165 42.7752 575.226 42.7752C573.287 42.7752 571.715 44.347 571.715 46.2861C571.715 48.2251 573.287 49.797 575.226 49.797ZM583.365 22.1579L583.94 21.5425L598.956 35.5861L598.38 36.2015L583.365 22.1579Z" fill="#F56843"/>
<path d="M289.074 200.69C277.46 208.002 269.459 214.967 265.073 221.599C260.69 228.224 256.743 239.408 253.217 255.163L254.039 255.347C257.545 239.683 261.462 228.585 265.776 222.064C270.085 215.549 278.001 208.657 289.523 201.403L289.074 200.69Z" fill="#F56843"/>
<path fill-rule="evenodd" clip-rule="evenodd" d="M126.331 296.009C130.86 297.619 135.049 298.843 138.9 299.68C142.667 300.499 147.094 301.207 152.181 301.803C153.259 301.929 154.031 302.906 153.905 303.985C153.895 304.068 153.88 304.15 153.86 304.232L153.805 304.452C153.526 305.57 152.448 306.296 151.308 306.133C146.58 305.461 142.162 304.714 138.057 303.893C133.893 303.06 129.689 301.622 125.446 299.579C124.522 299.134 124.037 298.1 124.286 297.105C124.496 296.265 125.347 295.755 126.186 295.965C126.235 295.977 126.284 295.992 126.331 296.009Z" fill="white"/>
<path d="M142.977 301.261C141.538 301.007 140.175 300.74 138.887 300.46C137.318 300.119 135.683 299.679 133.982 299.139L133.375 301.77C135.076 302.277 136.747 302.695 138.388 303.024C139.692 303.285 141.028 303.538 142.395 303.784L142.977 301.261ZM143.809 301.405L143.226 303.931C145.896 304.401 148.685 304.843 151.593 305.256C152.306 305.357 152.979 304.904 153.153 304.205L153.208 303.985C153.22 303.938 153.229 303.891 153.234 303.844C153.306 303.227 152.865 302.669 152.249 302.596C149.201 302.239 146.388 301.842 143.809 301.405ZM133.178 298.878C130.987 298.152 128.69 297.265 126.286 296.218C126.233 296.195 126.179 296.176 126.123 296.162C125.567 296.024 125.004 296.362 124.865 296.918L124.777 297.273C124.611 297.939 124.951 298.628 125.581 298.901C127.961 299.934 130.29 300.808 132.568 301.522L133.178 298.878ZM126.623 295.445C131.164 297.424 135.312 298.821 139.066 299.637C142.834 300.456 147.26 301.164 152.347 301.759C153.425 301.886 154.198 302.863 154.071 303.942C154.061 304.025 154.046 304.107 154.026 304.189L153.971 304.409C153.692 305.527 152.614 306.252 151.474 306.09C146.746 305.418 142.329 304.671 138.223 303.85C134.074 303.02 129.748 301.628 125.245 299.674C124.237 299.237 123.694 298.135 123.959 297.069L124.048 296.714C124.299 295.707 125.319 295.094 126.327 295.345C126.428 295.37 126.527 295.404 126.623 295.445Z" fill="#F56843"/>
<path fill-rule="evenodd" clip-rule="evenodd" d="M76.3972 249.918L80.3294 248.233L84.2616 256.378L80.3294 258.906L76.3972 249.918ZM89.5982 253.008C88.5492 253.008 87.4945 252.835 86.7895 252.165C86.0349 251.449 85.666 250.198 85.666 249.076C85.666 248.177 86.0013 246.929 86.5086 246.267C87.2273 245.329 88.3252 245.144 89.5982 245.144C90.7316 245.144 91.6893 245.219 92.4069 245.986C93.0643 246.689 93.5304 248.037 93.5304 249.076C93.5304 250.372 93.0939 251.73 92.1261 252.446C91.4727 252.93 90.4734 253.008 89.5982 253.008Z" fill="#FFD1D1"/>
<path d="M76.1219 249.698L80.8146 247.687L85.0841 256.531L80.4224 259.528L76.1219 249.698ZM80.7982 258.285L84.0009 256.226L80.406 248.779L77.2342 250.138L80.7982 258.285ZM89.8791 253.429C88.5344 253.429 87.5044 253.159 86.7803 252.471C85.9778 251.709 85.5256 250.394 85.5256 249.076C85.5256 248.044 85.9087 246.724 86.455 246.011C87.1924 245.048 88.2356 244.722 89.8791 244.722C91.4442 244.722 92.271 244.924 92.9955 245.698C93.7157 246.469 94.2326 247.912 94.2326 249.076C94.2326 250.613 93.682 252.027 92.6576 252.785C92.0024 253.27 91.1231 253.429 89.8791 253.429ZM89.8791 252.587C90.9537 252.587 91.6893 252.453 92.1563 252.108C92.9381 251.529 93.39 250.368 93.39 249.076C93.39 248.116 92.9472 246.88 92.3801 246.274C91.8609 245.719 91.2292 245.565 89.8791 245.565C88.4717 245.565 87.665 245.817 87.1239 246.523C86.6992 247.078 86.3682 248.218 86.3682 249.076C86.3682 250.181 86.7444 251.275 87.3604 251.86C87.8947 252.367 88.7297 252.587 89.8791 252.587Z" fill="#F56843"/>
<path d="M296.601 131.671H247.729C246.798 131.671 246.044 132.426 246.044 133.356C246.044 134.287 246.798 135.042 247.729 135.042H296.601C297.532 135.042 298.286 134.287 298.286 133.356C298.286 132.426 297.532 131.671 296.601 131.671Z" fill="white"/>
<path d="M247.729 131.671H296.601C297.532 131.671 298.286 132.426 298.286 133.356C298.286 134.287 297.532 135.042 296.601 135.042H247.729C246.798 135.042 246.044 134.287 246.044 133.356C246.044 132.426 246.798 131.671 247.729 131.671ZM247.729 132.514C247.264 132.514 246.887 132.891 246.887 133.356C246.887 133.822 247.264 134.199 247.729 134.199H296.601C297.066 134.199 297.444 133.822 297.444 133.356C297.444 132.891 297.066 132.514 296.601 132.514H247.729Z" fill="#F56843"/>
<path d="M174.283 362.4L152.096 318.855C151.779 318.233 151.018 317.986 150.396 318.303C149.774 318.62 149.527 319.381 149.843 320.003L172.031 363.548C172.348 364.17 173.109 364.417 173.731 364.1C174.353 363.784 174.6 363.022 174.283 362.4Z" fill="white" stroke="#F56843" stroke-width="0.842617"/>
<path fill-rule="evenodd" clip-rule="evenodd" d="M160.724 250.372C159.124 251.729 151.623 245.97 150.019 245.291C149.157 244.926 148.754 243.932 149.118 243.069C149.453 242.279 150.326 241.863 151.15 242.101C156.078 243.523 158.856 244.555 159.484 245.196C161.076 246.82 162.325 249.016 160.724 250.372Z" fill="white"/>
<path fill-rule="evenodd" clip-rule="evenodd" d="M198.48 288.665L215.257 278.038C215.519 277.872 215.866 277.95 216.032 278.212C216.036 278.218 216.04 278.225 216.044 278.231L222.464 289.339C222.614 289.599 222.534 289.93 222.282 290.092L205.804 300.724C205.543 300.892 205.195 300.817 205.027 300.556C205.024 300.552 205.021 300.547 205.018 300.542L198.3 289.43C198.141 289.169 198.221 288.829 198.48 288.665Z" fill="white"/>
<path d="M197.69 288.835L215.317 277.821C215.58 277.657 215.926 277.737 216.091 278L223.235 289.433C223.399 289.696 223.319 290.043 223.056 290.207L205.43 301.221C205.167 301.386 204.82 301.306 204.656 301.043L197.512 289.609C197.347 289.346 197.427 289 197.69 288.835ZM198.375 289.401L205.222 300.358L222.371 289.642L215.525 278.685L198.375 289.401Z" fill="#F56843"/>
<path d="M201.936 289.007L213.369 281.863C213.632 281.699 213.979 281.779 214.143 282.042L218.906 289.664C219.07 289.927 218.99 290.273 218.727 290.438L207.294 297.582C207.031 297.747 206.684 297.667 206.52 297.403L201.757 289.781C201.593 289.518 201.673 289.172 201.936 289.007ZM207.086 296.719L218.043 289.872L213.577 282.726L202.621 289.573L207.086 296.719Z" fill="#F56843"/>
</svg>
