<svg width="60" height="60" viewBox="0 0 60 60" fill="none" xmlns="http://www.w3.org/2000/svg">
<path d="M52.5735 14.3892V40.6979H30.0434L26.0874 27.5435L30.0434 14.3892H52.5735Z" fill="black"/>
<path d="M30.0433 14.3892V40.6979H23.3339L12.7308 51.3022V40.6979H7.51343V14.3892H30.0433Z" fill="black"/>
<path d="M49.9648 16.9978V38.0891H30.0434L27.4348 27.5435L30.0434 16.9978H49.9648Z" fill="white"/>
<path d="M30.0432 16.9978H10.1221V38.0891H30.0432V16.9978Z" fill="white"/>
<path d="M47.3248 26.348L44.7487 28.9724L45.29 32.6089L41.9992 30.9693L40.6948 28.028L41.9992 22.478L43.6987 25.7389L47.3248 26.348Z" fill="black"/>
<path d="M41.999 22.478V30.9693L38.7068 32.6089L39.2494 28.9724L36.6733 26.348L40.2994 25.7389L41.999 22.478Z" fill="black"/>
<path d="M35.369 26.348L32.7929 28.9724L33.3342 32.6089L30.0434 30.9693L28.739 28.028L30.0434 22.478L31.7429 25.7389L35.369 26.348Z" fill="black"/>
<path d="M30.0432 22.478V30.9693L26.751 32.6089L27.2936 28.9724L24.7175 26.348L28.3436 25.7389L30.0432 22.478Z" fill="black"/>
<path d="M23.4134 26.348L20.8374 28.9724L21.3787 32.6089L18.0878 30.9693L16.7834 28.028L18.0878 22.478L19.7874 25.7389L23.4134 26.348Z" fill="black"/>
<path d="M18.0879 22.478V30.9693L14.7957 32.6089L15.3383 28.9724L12.7622 26.348L16.3883 25.7389L18.0879 22.478Z" fill="black"/>
</svg>
