<svg width="60" height="60" viewBox="0 0 60 60" fill="none" xmlns="http://www.w3.org/2000/svg">
<path fill-rule="evenodd" clip-rule="evenodd" d="M8.75005 30C8.75005 18.264 18.264 8.75 30 8.75C41.736 8.75 51.25 18.264 51.25 30C51.25 41.736 41.736 51.25 30 51.25C25.8195 51.25 21.9282 50.0455 18.645 47.9653C18.0339 47.5783 17.2852 47.4747 16.5921 47.6815L9.39423 49.8298L12.1043 43.4882C12.4247 42.7387 12.3595 41.8802 11.9297 41.1877C9.91425 37.94 8.75005 34.1098 8.75005 30ZM30 3.75C15.5026 3.75 3.75005 15.5025 3.75005 30C3.75005 34.5952 4.9329 38.9208 7.01163 42.6818L2.70118 52.7675C2.32012 53.6593 2.48903 54.6908 3.13455 55.4143C3.78008 56.138 4.7858 56.423 5.71498 56.1455L16.9635 52.7887C20.8061 54.9912 25.2593 56.25 30 56.25C44.4975 56.25 56.25 44.4975 56.25 30C56.25 15.5025 44.4975 3.75 30 3.75ZM35.7313 35.456L32.4458 37.7702C30.907 36.8937 29.2058 35.6702 27.4993 33.9637C25.7253 32.1897 24.4101 30.3583 23.4403 28.6783L25.5283 26.906C26.4243 26.1455 26.6695 24.8633 26.1175 23.8257L23.4571 18.8257C23.0989 18.1524 22.4529 17.6795 21.7029 17.5414C20.9528 17.4032 20.1808 17.615 19.6062 18.1165L18.8174 18.8049C16.9206 20.4603 15.7988 23.1807 16.7285 25.9352C17.6925 28.7907 19.7496 33.285 23.9638 37.4992C28.4978 42.0332 33.1033 43.8187 35.7965 44.5122C37.9665 45.0707 40.02 44.322 41.467 43.143L42.9458 41.938C43.5783 41.4227 43.9195 40.631 43.86 39.8172C43.8003 39.0035 43.3473 38.27 42.6463 37.8522L38.4505 35.3522C37.603 34.8475 36.538 34.888 35.7313 35.456Z" fill="black"/>
</svg>
